<?xml version="1.0" encoding="UTF-8"?>
<svg xmlns="http://www.w3.org/2000/svg" width="128" height="128" viewBox="0 0 128 128">
  <defs>
    <linearGradient id="bg" x1="16" y1="12" x2="112" y2="116" gradientUnits="userSpaceOnUse">
      <stop stop-color="#3584e4"/>
      <stop offset="1" stop-color="#1c4f9c"/>
    </linearGradient>
  </defs>
  <rect x="8" y="8" width="112" height="112" rx="27" fill="url(#bg)"/>
  <circle cx="64" cy="64" r="36" fill="none" stroke="#fff" stroke-width="6" opacity=".96"/>
  <circle cx="64" cy="64" r="8" fill="#fff"/>
  <path d="M64 54c-5-13-2-25 5-31 10 6 15 17 10 28-3 7-9 10-15 11z" fill="#fff"/>
  <path d="M73 68c14 2 23 11 25 20-10 7-22 7-29-2-5-6-5-12-3-18z" fill="#fff"/>
  <path d="M55 68c-9 11-21 14-30 10 0-12 7-22 18-24 8-1 13 3 17 7z" fill="#fff"/>
  <circle cx="64" cy="64" r="4" fill="#1c4f9c"/>
</svg>
